<?xml version="1.0" encoding="utf-8"?>
<!-- Generator: Adobe Illustrator 16.0.0, SVG Export Plug-In . SVG Version: 6.00 Build 0)  -->
<!DOCTYPE svg PUBLIC "-//W3C//DTD SVG 1.1//EN" "http://www.w3.org/Graphics/SVG/1.1/DTD/svg11.dtd">
<svg version="1.1" xmlns="http://www.w3.org/2000/svg" xmlns:xlink="http://www.w3.org/1999/xlink" x="0px" y="0px" width="52px"
	 height="52px" viewBox="0 0 52 52" enable-background="new 0 0 52 52" xml:space="preserve">
<g id="Layer_1">
	<circle fill="#FFFFFF" stroke="#B22222" stroke-width="3" stroke-miterlimit="10" cx="26.055" cy="26.03" r="23.504"/>
	<path fill="#B22222" d="M39,38.936C39,40.628,37.628,42,35.936,42H16.064C14.372,42,13,40.628,13,38.936V13.064
		C13,11.372,14.372,10,16.064,10h19.871C37.628,10,39,11.372,39,13.064V38.936z"/>
</g>
<g id="Layer_3">
	<rect x="1.834" y="11" fill="none" width="48" height="37.332"/>
	<text transform="matrix(1 0 0 1 17.7988 24.2002)" fill="#FFFFFF" font-family="'FontAwesome'" font-size="15"></text>
	<rect x="8.917" y="25.5" fill="none" width="33.833" height="36.833"/>
	<text transform="matrix(1 0 0 1 18.334 38.7002)" fill="#FFFFFF" font-family="'FontAwesome'" font-size="15"></text>
</g>
<g id="Layer_2">
	<rect x="-76.514" y="55.869" fill="none" width="50.696" height="53.465"/>
	<text transform="matrix(1 0 0 1 -76.5142 64.5781)"><tspan x="0" y="0" fill="#B22222" font-family="'fontello'" font-size="10" letter-spacing="4">abc</tspan><tspan x="40.696" y="0" fill="#B22222" font-family="'fontello'" font-size="10">-</tspan><tspan x="0" y="12" fill="#B22222" font-family="'fontello'" font-size="10" letter-spacing="5">def</tspan><tspan x="40.696" y="12" fill="#B22222" font-family="'fontello'" font-size="10">-</tspan><tspan x="1.133" y="24" fill="#B22222" font-family="'fontello'" font-size="10">ghjik</tspan></text>
</g>
</svg>
